<?xml version="1.0" encoding="UTF-8"?>
<!DOCTYPE svg PUBLIC "-//W3C//DTD SVG 1.1//EN" "http://www.w3.org/Graphics/SVG/1.1/DTD/svg11.dtd">
<svg xmlns="http://www.w3.org/2000/svg" version="1.1" width="48px" height="48px" style="shape-rendering:geometricPrecision; text-rendering:geometricPrecision; image-rendering:optimizeQuality; fill-rule:evenodd; clip-rule:evenodd" xmlns:xlink="http://www.w3.org/1999/xlink">
<g><path style="opacity:0.365" fill="#0d1113" d="M 39.5,20.5 C 37.7163,19.2801 36.0496,19.2801 34.5,20.5C 32.1667,18.8333 30.1667,16.8333 28.5,14.5C 28.56,13.9569 28.8933,13.6236 29.5,13.5C 30.1818,14.2427 30.8485,14.9094 31.5,15.5C 31.6107,16.1174 31.944,16.6174 32.5,17C 35.562,17.7415 38.562,17.5748 41.5,16.5C 42.4909,12.5546 42.8242,8.55461 42.5,4.5C 38.7307,4.24401 35.0641,4.57734 31.5,5.5C 30.8969,7.1897 29.8969,8.6897 28.5,10C 25.1996,9.95448 21.8663,9.78782 18.5,9.5C 18.4326,10.9587 18.7659,12.2921 19.5,13.5C 18.962,15.1172 18.6287,16.7839 18.5,18.5C 14.5149,18.4399 12.8482,20.4399 13.5,24.5C 13.1667,24.5 12.8333,24.5 12.5,24.5C 12.762,23.0222 12.4287,21.6888 11.5,20.5C 10.5344,22.396 10.2011,24.396 10.5,26.5C 10.1667,26.5 9.83333,26.5 9.5,26.5C 9.93036,22.1006 8.09702,19.1006 4,17.5C 3.33333,13.5 3.33333,9.5 4,5.5C 6.04129,4.24782 8.37462,3.58115 11,3.5C 13.1667,3.66667 15.3333,3.83333 17.5,4C 18.3366,5.01127 18.67,6.17793 18.5,7.5C 21.7989,8.37612 25.1322,8.54279 28.5,8C 29.1667,6.66667 29.8333,5.33333 30.5,4C 34.8713,3.17248 39.2047,3.33915 43.5,4.5C 44.7553,8.14481 44.7553,11.8115 43.5,15.5C 42.5004,17.4797 41.1671,19.1464 39.5,20.5 Z"/></g>
<g><path style="opacity:1" fill="#4572a5" d="M 6.5,4.5 C 9.8499,4.33499 13.1832,4.50166 16.5,5C 17.8333,9 17.8333,13 16.5,17C 12.8484,17.4986 9.18174,17.6653 5.5,17.5C 5.23071,13.0685 5.56404,8.7352 6.5,4.5 Z"/></g>
<g><path style="opacity:1" fill="#4775a9" d="M 31.5,15.5 C 31.5,12.1667 31.5,8.83333 31.5,5.5C 35.0641,4.57734 38.7307,4.24401 42.5,4.5C 42.8242,8.55461 42.4909,12.5546 41.5,16.5C 38.562,17.5748 35.562,17.7415 32.5,17C 31.944,16.6174 31.6107,16.1174 31.5,15.5 Z"/></g>
<g><path style="opacity:0.31" fill="#2e353a" d="M 31.5,5.5 C 31.5,8.83333 31.5,12.1667 31.5,15.5C 30.8485,14.9094 30.1818,14.2427 29.5,13.5C 28.8933,13.6236 28.56,13.9569 28.5,14.5C 25.6085,13.5975 22.6085,13.2641 19.5,13.5C 18.7659,12.2921 18.4326,10.9587 18.5,9.5C 21.8663,9.78782 25.1996,9.95448 28.5,10C 29.8969,8.6897 30.8969,7.1897 31.5,5.5 Z"/></g>
<g><path style="opacity:0.546" fill="#07090c" d="M 39.5,20.5 C 39.0183,21.4163 38.685,22.4163 38.5,23.5C 41.1151,26.125 43.1151,29.125 44.5,32.5C 43.8367,35.8058 43.3367,39.1392 43,42.5C 38.5368,44.4948 34.0368,44.6615 29.5,43C 28.6634,41.9887 28.33,40.8221 28.5,39.5C 25.8589,38.7369 23.1922,38.5702 20.5,39C 19.7433,40.5122 18.7433,41.8455 17.5,43C 13.1287,43.8275 8.79535,43.6609 4.5,42.5C 3.40006,38.5575 3.23339,34.5575 4,30.5C 6.167,29.5119 8.00034,28.1786 9.5,26.5C 9.83333,26.5 10.1667,26.5 10.5,26.5C 11.8333,26.5 12.5,25.8333 12.5,24.5C 12.8333,24.5 13.1667,24.5 13.5,24.5C 14.4779,27.3248 16.4779,28.6581 19.5,28.5C 18.8401,33.3277 20.8401,35.161 25.5,34C 26.8932,32.8289 27.7265,31.3289 28,29.5C 29.8754,28.2576 31.7087,26.9242 33.5,25.5C 34.4519,23.9547 34.7852,22.288 34.5,20.5C 36.0496,19.2801 37.7163,19.2801 39.5,20.5 Z"/></g>
<g><path style="opacity:1" fill="#7c8484" d="M 12.5,24.5 C 12.5,25.8333 11.8333,26.5 10.5,26.5C 10.2011,24.396 10.5344,22.396 11.5,20.5C 12.4287,21.6888 12.762,23.0222 12.5,24.5 Z"/></g>
<g><path style="opacity:0.949" fill="#354c5a" d="M 13.5,29.5 C 11.5648,30.1495 9.56475,30.4828 7.5,30.5C 8.50716,29.1716 9.8405,28.1716 11.5,27.5C 12.7133,27.7472 13.38,28.4138 13.5,29.5 Z"/></g>
<g><path style="opacity:0.969" fill="#435464" d="M 41.5,29.5 C 38.1667,29.5 34.8333,29.5 31.5,29.5C 32.7653,28.5207 34.0986,27.5207 35.5,26.5C 36.6466,18.5794 37.48,18.5794 38,26.5C 38.985,27.8141 40.1516,28.8141 41.5,29.5 Z"/></g>
<g><path style="opacity:1" fill="#4977ad" d="M 31.5,29.5 C 34.8333,29.5 38.1667,29.5 41.5,29.5C 42.6453,33.3112 42.8119,37.3112 42,41.5C 38,42.8333 34,42.8333 30,41.5C 29.8333,39.5 29.6667,37.5 29.5,35.5C 29.5391,33.0478 30.2057,31.0478 31.5,29.5 Z"/></g>
<g><path style="opacity:1" fill="#4775a9" d="M 13.5,29.5 C 15.1667,29.5 16.8333,29.5 18.5,29.5C 18.6699,33.6447 18.0033,37.6447 16.5,41.5C 7.0732,45.2241 3.23986,42.2241 5,32.5C 5.41691,31.244 6.25025,30.5774 7.5,30.5C 9.56475,30.4828 11.5648,30.1495 13.5,29.5 Z"/></g>
<g><path style="opacity:1" fill="#6d7d82" d="M 26.5,34.5 C 28.0481,34.8212 28.7148,35.8212 28.5,37.5C 25.7531,37.8134 23.0865,37.48 20.5,36.5C 22.6309,35.8313 24.6309,35.1646 26.5,34.5 Z"/></g>
</svg>
